# Blender v2.91.2 OBJ File: 'pyramid.blend'
# www.blender.org
mtllib pyramid.mtl
o Cone_Cone.001
v -2.999138 0.004364 -2.999138
v 2.999138 0.004364 -2.999138
v 2.999138 0.004364 2.999138
v -2.999138 0.004364 2.999138
v 0.000000 3.096816 0.000000
vt 0.333333 0.500000
vt 0.500000 0.000000
vt 0.666667 0.500000
vt 0.833333 0.000000
vt 1.000000 0.500000
vt 0.333333 0.833333
vt 0.333333 0.500000
vt 0.666667 0.500000
vt 0.666667 0.833333
vt 0.000000 0.500000
vt 0.166667 0.000000
vt 0.333333 0.500000
vt 0.000000 1.000000
vt 0.166667 0.500000
vt 0.333333 1.000000
vn 0.0000 0.6962 -0.7179
vn 0.7179 0.6962 0.0000
vn 0.0000 -1.0000 0.0000
vn -0.0000 0.6962 0.7179
vn -0.7179 0.6962 0.0000
usemtl Pyramid
s off
f 1/1/1 5/2/1 2/3/1
f 2/3/2 5/4/2 3/5/2
f 1/6/3 2/7/3 3/8/3 4/9/3
f 3/10/4 5/11/4 4/12/4
f 4/13/5 5/14/5 1/15/5
